# xmcd
#
# Track frame offsets:
#	182
#	20227
#	38845
#	60445
#	80762
#	100900
#	122070
#	140715
#	159430
#	177740
#
# Disc length: 2654 seconds
#
# Revision: 2
# Processed by: cddbd v1.5.2PL0 Copyright (c) Steve Scherf et al.
# Submitted via: EasyCDDAExtractor 12.0.1.1
#
DISCID=8c0a5c0a
DTITLE=Mayra Mayra
DYEAR=1996
DGENRE=Latin
TTITLE0=Restos De Pasion (Mc Arthur Park)
TTITLE1=Se Quiere A Otro
TTITLE2=Con Los Brazos Abiertos
TTITLE3=Hazme El Amor
TTITLE4=Volvere A Ser Mia
TTITLE5=Yo Soy Melao
TTITLE6=Se Acabo
TTITLE7=Ese Fue Tu Error
TTITLE8=Eres Dueña De El
TTITLE9=A Mi No Me Toca Na
EXTD=
EXTT0=
EXTT1=
EXTT2=
EXTT3=
EXTT4=
EXTT5=
EXTT6=
EXTT7=
EXTT8=
EXTT9=
PLAYORDER=
